<svg id="Layer_1" xmlns="http://www.w3.org/2000/svg" viewBox="0 0 346.3 343"><style>.st0,.st1{fill:none;stroke:#9d91f5;stroke-width:12}.st1{stroke-linecap:round}.st2{fill:#fff}.st3{fill:none;stroke:#2b1b9a;stroke-width:12;stroke-linecap:round;stroke-linejoin:round;stroke-miterlimit:10}</style><path class="st0" d="M72.7 261.2c-15.6 19.3-16 75.8 32.8 75.8 23.1 0 47.4-18.9 119.2-161.2 10.5-20.8 29.2-36.1 48.6-42.8"/><path class="st1" d="M340.3 184c1.8-80.6-86.9-63.4-115-7.5"/><path class="st2" d="M0 116.5C0 181 58.3 233 130 233h130V116.5C260.3 52.3 202 0 130.3 0S0 52.3 0 116.5z"/><path class="st3" d="M64.3 280.1c4.1-20.8 22.7-46 80.2-46h58.6m-4.8-.4c50.2 0 146.3 14.9 141.8-56.7"/></svg>