<svg width="388" height="194" fill="none" xmlns="http://www.w3.org/2000/svg"><path d="M360.805 34.686c-4.459-8.017-11.595-1.115-13.881 1.605a8.838 8.838 0 0 0-5.006-1.94c-4.047-.1-3.835 2.676-6.199 2.777-2.018.089-3.824-4.126-9.867-1.952-4.07 1.461-5.686 4.46-5.742 7.292a2.47 2.47 0 0 0 .709 1.787 2.468 2.468 0 0 0 1.777.733c3.869-.056 11.384-.123 17.26 0 7.47.145 13.914.09 15.865-.19a6.834 6.834 0 0 0 5.084-10.112z" fill="#EFF8FE"/><path d="M320.111 42.468c.056-2.876 1.673-5.83 5.742-7.292 6.043-2.174 7.805 2.04 9.868 1.952 2.363-.1 2.151-2.877 6.199-2.777a9.509 9.509 0 0 1 5.875 2.643c.747.669 1.45 1.717.993 2.609a1.565 1.565 0 0 1-1.83.603 1.56 1.56 0 0 1-.579-.37 2.229 2.229 0 0 1-.167-2.63c.48-.814 9.388-11.897 14.595-2.52a6.837 6.837 0 0 1-5.084 10.101c-1.952.279-8.396.335-15.866.19-8.273-.156-16.111 0-16.111 0" stroke="#2B1B9E" stroke-width="1.5" stroke-linecap="round" stroke-linejoin="round"/><path d="M283.195 165.324l40.885-.714s4.828-10.124-1.349-14.215c-5.575-3.713-11.25-2.23-14.874 4.738 0 0-4.548-2.787-6.968-1.851a20.094 20.094 0 0 0-5.43 3.925s-7.291-3.189-10.692-1.115a9.724 9.724 0 0 0-4.293 5.519 2.836 2.836 0 0 0 2.721 3.713zM27.494 123.837h49.704s8.24-2.933 1.394-9.89c-4.895-4.972-13.725-4.46-17.784-2.798-1.973.836-2.118 1.404-2.118 1.404s-4.76-4.727-11.15-4.314c-6.388.412-7.804 4.917-5.307 10.101 0 0-8.194-6.6-12.9-3.122-5.786 4.315-1.84 8.619-1.84 8.619z" fill="#EFF8FE"/><path d="M179.348 124.929l-13.914 48.523s25.744 11.829 40.929 10.692c0 0 12.956-41.81 12.9-42.268-.201-1.906-1.472-4.459-2.118-6.009a25.047 25.047 0 0 0-1.617-3.847 2.388 2.388 0 0 0-1.851-1.115 106.91 106.91 0 0 1-14.026-1.94c-4.906-1.204-17.192-5.797-17.192-5.797a2.543 2.543 0 0 0-3.111 1.761z" fill="#fff"/><path d="M207.914 133.626c0 .056-2.553 2.598-2.888 4.593-.189 1.115 1.115 2.476 1.729 2.81 3.055 1.572 8.674.981 8.674.981l.212-1.683-7.024-.937.791-5.664m-43.004 36.28l-.97 3.446s25.744 11.829 40.929 10.692c0 0 1.929-3.1 1.483-3.178-34.006-6.411-41.063-12.297-41.442-10.96z" fill="#F5F4FE"/><path d="M200.232 168.441l-8.34-2.216a2.341 2.341 0 0 0-2.864 1.662l-.461 1.735a2.342 2.342 0 0 0 1.661 2.864l8.341 2.216a2.342 2.342 0 0 0 2.864-1.662l.461-1.735a2.341 2.341 0 0 0-1.662-2.864z" fill="#FFB41E"/><path d="M212.764 120.481c-5.118.791-10.648-1.55-15.03-3.468a27.86 27.86 0 0 0-8.116-2.23 7.164 7.164 0 0 0-4.349.591c-1.616.914-3.344 2.654-1.928 4.783 1.025 1.539 6.689 2.331 6.388-5.095-.223-5.753-.524-11.417-14.873-30.103-28.242-36.794-4.638-63.184 3.166-69.127 19.043-14.494 45.133-12.264 60.018-4.46 19.143 10.035 24.852 25.399 26.011 41.064 2.42 32.701-24.807 45.3-36.235 50.172-11.429 4.872-13.748 10.001-13.101 15.275v.1a2.339 2.339 0 0 1-1.951 2.498z" fill="#F5F4FE"/><path d="M264.052 52.47c-1.026-13.926-5.664-27.607-20.125-37.53 3.813 4.66 5.185 11.306 6.01 22.388.97 13.168-3.535 23.035-8.184 30.56-6.879 11.15-15.542 17.17-19.043 21.285-8.139 9.555-14.862 12.443-16.468 26.123-.123 1.115-.301 3.981-.346 4.716 2.237.603 4.571.763 6.869.469a2.34 2.34 0 0 0 1.962-2.498v-.1c-.658-5.274 1.572-10.313 13.089-15.241 11.518-4.928 38.655-17.472 36.236-50.173z" fill="#A195F9"/><path d="M205.895 120.18c-1.305-.491-9.756-3.836-9.756-3.836a23.408 23.408 0 0 0 2.319-12.955c-.591-5.91-4.571-13.268-7.336-19.79-4.326-10.18-7.504-14.852-8.641-22.166-4.593-29.434 20.136-56.65 20.136-56.65s20.481-2.91 35.188 5.251c8.73 4.828 10.971 11.652 12.13 27.316.97 13.168-3.534 23.035-8.184 30.561-6.879 11.15-15.542 17.17-19.043 21.284-8.139 9.555-14.862 12.443-16.467 26.123-.145 1.193-.346 4.862-.346 4.862z" fill="#fff"/><path d="M238.085 10.425c-17.694-9.054-41.331-9.477-60.062 5.44-9.577 7.616-31.408 32.334-3.166 69.127 14.349 18.698 14.683 24.35 14.873 30.104.279 7.425-5.363 6.689-6.389 5.095-1.416-2.13.313-3.869 1.929-4.783a6.687 6.687 0 0 1 3.925-.636c4.46.368 8.518 2.386 12.677 3.958 4.158 1.572 8.808 2.698 13 1.227 0 0-1.528-11.072 9.421-15.253m-29.18 11.986c-.657 4.159-1.795 5.786-3.133 9.555m16.279-5.374c-.792 3.791-1.951 5.575-2.698 9.087" stroke="#2B1B9E" stroke-width="1.5" stroke-linecap="round" stroke-linejoin="round"/><path d="M179.348 124.929l-13.914 48.523s25.744 11.829 40.929 10.692c0 0 12.956-41.81 12.9-42.268-.201-1.906-1.472-4.459-2.118-6.009a25.047 25.047 0 0 0-1.617-3.847 2.388 2.388 0 0 0-1.851-1.115 106.91 106.91 0 0 1-14.026-1.94c-4.906-1.204-17.192-5.797-17.192-5.797a2.543 2.543 0 0 0-3.111 1.761z" stroke="#2B1B9E" stroke-width="1.5" stroke-linecap="round" stroke-linejoin="round"/><path d="M209.106 134.05l-.981 4.738s6.422 1.349 7.381 1.528M196.23 13.636c-9.611 10.458-12.61 20.247-14.138 34.362a45.317 45.317 0 0 0-.078 10.202c1.115 9.79 6.423 18.52 10.659 27.416 4.237 8.898 7.604 19.066 4.694 28.487m9.086.435c0-19.333 33.069-31.218 41.621-60.764 4.226-14.595-.925-31.776-3.345-38.845 0 0 6.879 4.281 13.937 16.914 0 0 6.6 12.732 5.485 26.67M58.723 52.234c8.083-3.757 17.17-6.032 25.956-4.46a12.777 12.777 0 0 1 6.377 2.665 5.931 5.931 0 0 1 1.895 6.3c-.947 2.463-3.835 3.612-6.477 3.746a6.266 6.266 0 0 1-3.501-.647 3 3 0 0 1-1.584-2.977c.165-.647.491-1.241.948-1.728a17.037 17.037 0 0 1 6.21-4.26c6.802-2.954 14.495-3.422 21.831-2.385 8.016 1.115 15.721 4.003 23.748 5.062 8.028 1.059 29.089-1.026 34.954-6.612M97.746 72.17c4.783-2.888 25.644-11.15 43.104-9.142 6.132.702 12.142 2.107 18.263 2.965 6.121.859 12.933.357 17.538-3.757m-66.641 18.04c16.724 3.066 24.807-8.64 42.646-6.79 7.203.758 8.173 11.428 2.788 11.428-4.17 0-.112-8.518 5.429-8.92 5.163-.412 6.69 4.884 20.627.703m.992 69.829c7.716 2.23 16.39 5.385 24.339 6.489m-24.884-1.171c2.527.984 5.14 1.73 7.805 2.23m4.894 1.126c3.435.747 6.98 2.074 10.381 2.598m-22.992 2.999c-1.549-.513-2.965-.881-4.203.167a1.716 1.716 0 0 0-.178 2.475c.724.948 2.519 1.06 3.434 1.829a1.832 1.832 0 0 1 .496 2.177 1.825 1.825 0 0 1-1.979 1.034 5.668 5.668 0 0 1-3.457-1.304m4.895-9.21c-.245.781-.379 1.193-.613 1.962m-1.939 8.864l-.512 1.728M38.263 123.926c13.826.223 36.359.669 38.778 0 7.905-2.074 3.635-14.84-12.142-13.491-8.785.758-10.748 7.66-6.11 9.087 1.494.457 3.055-.346 2.364-2.843-1.817-6.545-13.178-11.06-18.352-6.69-2.475 2.107-2.074 5.776-.156 8.407-2.642-2.877-7.805-5.274-11.462-3.869-4.46 1.717-5.898 5.976-4.002 8.273m252.915 39.614c3.746-10.626 12.665-5.33 14.617-5.33 2.976 0 3.802-4.147 7.804-4.036 2.23 0 10.492 4.137 7.671 6.969a1.994 1.994 0 0 1-2.457.258 1.982 1.982 0 0 1-.62-.626c-1.963-3.345 4.315-14.149 13.022-10.548 8.708 3.602 6.188 15.331 2.966 15.331-1.628 0-14.94.423-22.5.368-8.272-.067-16.11 0-16.11 0m-89.608 2.14l5.34 1.517a2.351 2.351 0 0 1 1.662 2.876l-.469 1.728" stroke="#2B1B9E" stroke-width="1.5" stroke-linecap="round" stroke-linejoin="round"/><path d="M191.626 131.563a4.073 4.073 0 0 0-2.498-.446c-2.23.279-3.489 2.13-3.623 5.486h1.583a4.746 4.746 0 0 1 1.115-3.423 2.379 2.379 0 0 1 1.817-.524 1.796 1.796 0 0 1 1.438.892 1.916 1.916 0 0 1 0 1.773c-.691 1.416-2.341 1.639-3.88 1.661h-2.776a3.1 3.1 0 0 0-2.586 1.249 2.501 2.501 0 0 0 .245 2.731 2.412 2.412 0 0 0 1.84.825c.303-.003.605-.056.892-.156a2.962 2.962 0 0 0 1.806-2.765h-1.595c-.067.446-.301 1.461-1.226 1.349a.822.822 0 0 1-.636-.479.75.75 0 0 1 .056-.747c.201-.301.714-.469 1.55-.502h2.497a7.9 7.9 0 0 0 3.178-.591 4.192 4.192 0 0 0 1.951-1.773 3.353 3.353 0 0 0 .335-2.586 3.241 3.241 0 0 0-1.539-1.996" fill="#2B1B98"/></svg>