<svg width="371" height="218" fill="none" xmlns="http://www.w3.org/2000/svg"><path d="M158.208 59.792c-3.396-2.148-6.734 1.802-5.106 7.67 1.899 6.848 5.303 8.19 7.301 7.992l-2.195-15.662z" fill="#fff"/><path d="M158.208 59.792c-3.396-2.148-6.734 1.802-5.106 7.67 1.899 6.848 5.303 8.19 7.301 7.992" stroke="#2B1B9E" stroke-width="1.5" stroke-linecap="round" stroke-linejoin="round"/><path d="M209.696 60.294c4.111-3.292 7.449 1.3 5.821 7.169-1.899 6.847-5.673 8.23-7.671 8.024l1.85-15.193z" fill="#fff"/><path d="M188.251 99.422c-3.552-.066-7.022-.115-10.294-.157 1.54.756 3.22 1.182 4.933 1.251a26.97 26.97 0 0 0 5.361-1.094z" fill="#F5F4FE"/><path d="M137.685 102.475c3.404 6.585 20.836 12.947 47.854 14.749 5.755.379 24.428-1.827 35.898-5.506 9.924-3.185 13.205-7.885 13.205-7.885a18.483 18.483 0 0 0-10.385-4.576c-9.044-.823-22.2.453-22.2.453v-9.72a26.501 26.501 0 0 1-13.821 9.432 27.022 27.022 0 0 1-5.353 1.094 12.32 12.32 0 0 1-4.933-1.25 32.69 32.69 0 0 1-9.209-6.709l.312 6.585v.19c-3.206.123-11.577-1.17-18.911-.536-6.619.601-12.859 2.914-12.457 3.679z" fill="#fff"/><path d="M204.219 53.29c-7.622-7.326-1.891-13.795-4.539-15.688a3.262 3.262 0 0 0-.337-.197c-1.866-.873-5.5 16.123-14.306 16.024-1.859 0-4.358-6.403-4.358-6.403s-9.546 11.21-21.658 10.807c-.411 0-.822-.066-1.175-.115 0 0 2.22 14.066 2.532 18.798.28 4.115 3.955 11.597 8.37 16.041 4.416 4.445 9.99 7.959 14.151 7.959 0 0 12.045-.823 19.174-10.526a25.25 25.25 0 0 0 3.799-7.754 164.114 164.114 0 0 0 3.856-21.942l-.107.066a28.38 28.38 0 0 0-5.402-7.07z" fill="#fff"/><path d="M216.199 67.52a.6.6 0 0 0-.05.247c.009.222.033.099.05-.247zm4.852-31.35a9.395 9.395 0 0 0 1.258-1.572c1.077-1.753 5.55-13.07-3.602-17.367a10.086 10.086 0 0 0-10.508 1.227c-2.466-4.346-9.151-8.132-14.158-8.297-18.813-.617-20.975 7.062-28.211 6.313-20.111-2.107-15.819 8.436-18.574 9.82-3.609 1.818-7.803 4.724-7.951 8.501-.329 8.437 6.011 10.24 9.505 10.462h.642c-.946 3.77 1.06 11.473 8.394 12.469.379.05.765.099 1.176.115 12.111.403 21.658-10.807 21.658-10.807s1.2 4.988 3.667 6.272c.765.476 1.675.66 2.565.519 7.211-2.577 10.73-17.202 12.432-16.412.12.052.233.118.337.197 2.648 1.893-3.083 8.362 4.539 15.688a28.407 28.407 0 0 1 5.402 7.07l.107-.066c6.158-4.255 6.528 5.144 6.47 7.185.51-1.292 5.682.107 4.753-6.518-.107-.824-3.815-3.507-3.914-4.313-.098-.807.65-1.572 1.332-2.124a14.811 14.811 0 0 0 4.539-5.465c1.488-3.564.477-7.679-1.044-11.234a14.206 14.206 0 0 0-.814-1.663z" fill="#A195F9"/><path d="M280.036 164.106s-9.406-14.033-19.396-28.807c-5.402-8.009-10.788-16.461-15.376-22.552a37.887 37.887 0 0 0-9.505-9.012c-.403-.297-6.577 5.86-17.003 9.012-11.939 3.597-26.673 4.568-32.42 4.51-39.122-.403-48.512-14.527-48.512-14.527s-5.928 2.577-7.704 3.811c-3.519 2.469-36.375 55.878-36.375 55.878l14.611 9.876 16.888 6.93 17.547-31.959s-1.168 8.346-.897 11.251c.56 5.934 3.224 23.605 3.224 23.605l-.51 11.523c.066-1.004 85.05 0 85.05 0s-1.521-10.576-1.397-14.123c.205-5.935 1.644-14.922 2.228-20.519.214-2.165-.411-11.729-.411-11.729l19.388 32.923 13.213-6.412 17.357-9.679z" fill="#EFF8FE"/><path d="M119.407 185.925s2.902-6.988 2.902-7.358c0-.198-5.87-2.617-11.56-5.712-5.123-2.782-13.205-7.062-13.205-7.062s-12.062 22.906-12.333 26.832c-.724 11.745 1.644 12.634 10.689 13.629 14.331 1.581 33.85-1.242 41.415 1.507l-1.439-18.996c-6.109-.642-16.469-2.84-16.469-2.84z" fill="#fff"/><path d="M85.342 192.929c-3.535 9.358 5.41 12.988 8.617 13.474 12.465 1.868 37-.823 43.504 1.308" stroke="#2B1B9E" stroke-width="1.5" stroke-linecap="round" stroke-linejoin="round"/><path d="M287.313 190.205c-.683-3.868-12.029-23.309-12.029-23.309s-22.669 12.453-22.611 12.823c.057.371 3.198 4.404 3.198 4.404l-19.898 6.798-1.225 18.461a32.035 32.035 0 0 0 6.413-3.127c4.868-3.235 16.445 0 27.29.823 3.618.263 7.211.559 10.812-.42 8.708-2.362 9.53-8.083 8.05-16.453z" fill="#fff"/><path d="M122.605 179.217c-3.042 4.692-2.771 5.836-4.185 6.955-3.535 2.807-8.444 1.012-5.607-1.243 1.562-1.251 4.177 0 6.076.626 5.607 1.868 15.17 3.053 16.773 2.905m152.227 3.037c.912 4.395-.189 9.367-3.519 12.346a15.842 15.842 0 0 1-3.495 2.272c-5.089 2.535-14.282-.354-30.948-.198m-6.965-.609c-.247.403-9.283 4.387-13.978 5.251m41.408-28.025c-12.103-.782-28.046 8.008-34.904 8.42m17.185-11.235l3.067 4.996m-110.269-53.071c-.057 2.906-3.05 12.239-3.355 21.532-.37 11.201 3.117 24.691 2.303 30.148m82.666-51.68c0 2.091 2.968 12.536 3.289 21.836.37 11.202-3.034 24.42-2.22 29.844" stroke="#2B1B9E" stroke-width="1.5" stroke-linecap="round" stroke-linejoin="round"/><path d="M138.211 155.176l-13.106 24.28c-20.621-7.243-31.368-17.029-31.368-17.029s22.365-35.548 29.773-47.367c5.583-8.922 12.712-13.26 21.074-15.26 5.755-1.366 16.904-.123 20.744-.823" stroke="#2B1B9E" stroke-width="1.5" stroke-linecap="round" stroke-linejoin="round"/><path d="M271.88 150.97c-2.903-3.004-14.858-18.98-24.453-35.63a36.097 36.097 0 0 0-9.324-10.387c-3.133-2.469-12.292-4.116-9.982-7.26 1.439-1.934 5.641-1.053 6.578 2.206 1.028 3.531-1.825 6.782-5.147 8.387a69.674 69.674 0 0 1-5.756 2.469c-31.927 12.198-72.215 4.865-83.044-5.679m109.06 75.4c19.774-8.485 27.273-14.88 27.273-14.88m-43.323-11.721l16.049 26.601M96.196 167.933c-2.77 5.292-5.41 9.794-8.386 17.284m187.77-17.72l10.122 17.844M182.734 71.076c0 2.37-.518 3.415-.526 5.761 0 1.087-.132 2.47.863 2.93.822.346 1.99.05 3.001.23m-7.613 8.733c.822.823 2.097 2.33 6.043 2.33 4.564 0 6.956-3.737 8.017-6.675-5.213 1.061-10.105 1.465-15.729.246" stroke="#2B1B9E" stroke-width="1.5" stroke-linecap="round" stroke-linejoin="round"/><path d="M157.525 57.561c2.171 7.358.995 14.198 4.358 24.05 2.467 7.177 10.475 19.087 22.488 18.436 11.338-.625 20.843-11.218 22.595-22.132 1.43-8.905 1.307-14.14 2.392-16.535.23-.6.589-1.143 1.053-1.588 3.198-2.47 6.734 1.802 5.106 7.67-1.9 6.848-5.312 8.19-7.302 7.992m-17.678-16.617c2.015-1.3 3.906-1.646 5.509.099m-25.316.296c2.015-1.292 4.112-1.572 5.707.206m25.751 29.901c-.296 2.626.058 6.898.074 15.087m-32.971-10.659c-.123.684.165 6.033 0 12.346" stroke="#2B1B9E" stroke-width="1.5" stroke-linecap="round" stroke-linejoin="round"/><path d="M171.684 73.133c-.542-2.469-.156-5.893.823-7.028a1.526 1.526 0 0 1 2.466.296c.526.683.576 1.86.633 3.53.058 1.869 0 3.227-.641 4.396a1.645 1.645 0 0 1-1.283.6 2.095 2.095 0 0 1-1.998-1.794zm19.446-.074c-.543-2.469-.148-5.893.822-7.029a1.536 1.536 0 0 1 1.307-.489 1.533 1.533 0 0 1 1.16.778c.526.69.584 1.868.633 3.539.058 1.868 0 3.226-.641 4.395a1.577 1.577 0 0 1-1.283.592 2.077 2.077 0 0 1-1.998-1.786z" fill="#2B1B9E"/><path d="M135.416 107.908c6.134 4.172 8.354 11.67 9.554 18.107m83.134-2.436c1.053-2.7 3.413-11.276 8.708-15.021m-79.5-36.923c-4.761-.823-7.524 2.7-8.477 6.05a7.502 7.502 0 0 0 3.338 8.395c2.853 1.844 7.696 1.893 10.319-1.564m47.754-11.737c4.448-.485 7.055 2.881 7.975 6.116a7.505 7.505 0 0 1-3.354 8.379c-2.853 1.843-7.696 1.892-10.319-1.564m-44.022-27.976c6.101.099 8.815-1.844 12.26-3.729 3.445-1.884 6.084-4.938 8.436-8.074 1.825-2.469 3.576-5.07 4.053-8.066.124-.773 0-1.761-.699-2.033a1.644 1.644 0 0 0-1.578.568c-1.538 1.507-1.957 3.811-2.138 5.96-.214 2.666-.222 11.242 5.427 11.522 5.229.28 13.155-16.593 12.859-16.7m-59.841-2.387c-.329 8.437 6.011 10.24 9.505 10.461a12.005 12.005 0 0 0 9.661-4.551c.74-.988 1.398-3.547-1.397-3.457-4.449.157-15.458 12.576.304 20.387m60.835 8.914a3.776 3.776 0 0 0 2.845-3.794 5.762 5.762 0 0 0-2.466-4.33c-.65-.485-1.447-.97-1.546-1.777-.099-.807.649-1.573 1.332-2.124a14.822 14.822 0 0 0 4.539-5.465c1.488-3.564.476-7.68-1.045-11.235-.666-1.555-1.537-3.185-3.083-3.868-1.546-.683-3.815.288-3.758 1.975.058 1.531 2.007 2.42 3.47 1.95a8.164 8.164 0 0 0 3.815-3.291c1.077-1.753 5.55-13.07-3.601-17.367a10.086 10.086 0 0 0-10.508 1.227m-5.064 80.346h12.111m-44.672-21.26a8.44 8.44 0 0 1-5.971-2.475 8.455 8.455 0 0 1-2.473-5.977v-4.75a1.524 1.524 0 0 1 1.521-1.522h15.458a1.52 1.52 0 0 1 1.521 1.523v4.749c0 4.667-3.232 8.905-10.056 8.453zm24.166 0a8.432 8.432 0 0 1-7.797-5.218 8.443 8.443 0 0 1-.639-3.234v-4.75a1.508 1.508 0 0 1 .932-1.406c.184-.076.381-.116.58-.116h15.458a1.52 1.52 0 0 1 1.521 1.523v4.749c0 4.667-3.223 8.905-10.055 8.453zm-36.696-17.654l4.349 3.457m18.681 6.535h4.695m19.042-6.477l5.591-3.605M55.973 203.349h25.612m206.402 0h35.422" stroke="#2B1B9E" stroke-width="1.5" stroke-linecap="round" stroke-linejoin="round"/><path d="M21.455 170.838c7.803-61.227 90.946-37.696 81.943-85.762" stroke="#FE585A" stroke-width="5" stroke-linecap="round" stroke-linejoin="round"/><path d="M21.455 170.838c1.094 60.149 97.442 36.807 109.759 35.219 18.606-2.403 32.066-.872 42.615 5.605" stroke="#FFB81E" stroke-width="5" stroke-linecap="round" stroke-linejoin="round"/><path d="M292.879 13.314s15.244-17.86 24.765-6.206c0 0 8.173 18.157 20.811 16.099" stroke="#A195F9" stroke-width="5" stroke-linecap="round" stroke-linejoin="round"/><path d="M367.134 13.314h-99.045a2.304 2.304 0 0 0-2.302 2.304v93.541a2.304 2.304 0 0 0 2.302 2.304h99.045a2.303 2.303 0 0 0 2.302-2.304v-93.54a2.303 2.303 0 0 0-2.302-2.305z" fill="#F5F4FE"/><path d="M361.222 86.22a1.758 1.758 0 0 0 .189-1.72c-3.535-8.23-15.145-40.231-19.001-45.161-1.711-2.198-4.259-2.7-7.022-2.939-1.941-.164-26.385-.222-29.362-.246a8.153 8.153 0 0 0-5.007 1.695c-4.111 3.819-20.432 35.112-25.357 44.387a3.084 3.084 0 0 0 .246 3.292l-3.099 5.161 12.769 7.68 2.902-4.824c-.288-.173 1.924-.337 2.927-1.81 3.552-5.227 7.26-19.137 8.806-20.881.132 9.448 0 12.345.239 20.658a3.207 3.207 0 0 0 1.907 2.84v5.366h34.969v-5.506h-.773a3.148 3.148 0 0 0 1.809-2.831c.05-4.939 0-12.346.28-21.828 2.22 4.667 4.432 18.107 7.943 22.634.359.31.779.543 1.233.683l2.664 5.44 13.386-6.584-2.648-5.506z" fill="#fff"/><path d="M277.882 83.669l-4.292 6.452c.227.3.505.556.822.758 2.664 1.736 7.4 4.666 11.783 7.275l3.93-7.77-12.243-6.715z" fill="#fff"/><path d="M265.737 95.29V15.618a2.301 2.301 0 0 1 .675-1.63 2.288 2.288 0 0 1 1.628-.674h95.649m5.944 6.469c-.181 2.6-.246 47.383-.246 47.383v41.976a2.306 2.306 0 0 1-2.303 2.305H268.04a2.294 2.294 0 0 1-1.628-.675 2.302 2.302 0 0 1-.675-1.63" stroke="#2B1B9E" stroke-width="1.5" stroke-linecap="round" stroke-linejoin="round"/><path d="M288.488 93.34l-2.927 5.028-12.769-7.695 2.738-4.7m85.692.757l2.606 5.153-13.303 6.428-2.829-5.68" stroke="#2B1B9E" stroke-width="1.5" stroke-linecap="round" stroke-linejoin="round"/><path d="M358.705 88.92a4.686 4.686 0 0 0 2.377-5.975c-4.268-10.783-15.697-39.302-18.994-43.516-1.71-2.197-4.349-2.6-7.112-2.84-1.94-.164-4.728-.073-5.114-.098-.518 2.716-2.204 7.803-9.332 7.761a8.868 8.868 0 0 1-6.907-2.84m27.496 35.713c1.579 5.153 3.116 9.877 4.054 12.486a4.693 4.693 0 0 0 4.524 3.114 4.684 4.684 0 0 0 1.889-.447" stroke="#2B1B9E" stroke-width="1.5" stroke-linecap="round" stroke-linejoin="round"/><path d="M285.512 92.212a4.789 4.789 0 0 0 6.775-2.107c4.325-9.284 12.267-30.898 12.555-33.424.23-1.951-1.447-3.03-2.738-2.47-1.093.445-1.455 1.844-1.455 3.021 0 6.346.172 26.823.452 35.671a1.698 1.698 0 0 0 1.644 1.646c7.458.19 26.813-.131 33.596 0a1.703 1.703 0 0 0 1.727-1.646c.091-5.67 0-21.177.345-31.704" stroke="#2B1B9E" stroke-width="1.5" stroke-linecap="round" stroke-linejoin="round"/><path d="M330.207 36.491s-21.501-.099-24.477-.123a10.363 10.363 0 0 0-6.627 2.938c-3.848 3.728-17.703 31.358-23.072 41.778a4.794 4.794 0 0 0 1.645 6.206m59.635 7.12v5.308H302.49v-5.053" stroke="#2B1B9E" stroke-width="1.5" stroke-linecap="round" stroke-linejoin="round"/><path d="M322.931 72.582c.502-.527 8.075-5.589 8.075-10.642a5.592 5.592 0 0 0-4.71-5.553 5.58 5.58 0 0 0-6.193 3.825 5.585 5.585 0 0 0-6.193-3.825 5.592 5.592 0 0 0-4.71 5.553c0 5.26 10.607 12.519 10.903 12.568" stroke="#FFB81E" stroke-width="1.5" stroke-linecap="round" stroke-linejoin="round"/><path d="M284.698 18.902a5.835 5.835 0 0 0-3.569-.634c-3.248.404-4.999 3.054-5.205 7.86h2.253c.099-2.427.617-4.032 1.587-4.896a3.404 3.404 0 0 1 2.598-.766 2.561 2.561 0 0 1 2.056 1.284 2.733 2.733 0 0 1 .082 2.552c-.986 2.024-3.354 2.337-5.542 2.378h-3.979c-1.414.14-2.96.461-3.708 1.786a3.57 3.57 0 0 0 .353 3.918 3.455 3.455 0 0 0 2.631 1.177c.435 0 .867-.079 1.275-.23.822-.322 2.343-1.26 2.598-3.96h-2.278c-.09.634-.427 2.091-1.751 1.935a1.173 1.173 0 0 1-.904-.692 1.08 1.08 0 0 1 .074-1.07c.296-.436 1.027-.675 2.228-.716h3.568c1.556.04 3.104-.24 4.547-.823a6.08 6.08 0 0 0 2.788-2.526 4.89 4.89 0 0 0 .468-3.72 4.586 4.586 0 0 0-2.195-2.857" fill="#2B1B9E"/><path d="M317.645 7.108s8.172 18.156 20.81 16.099" stroke="#A195F9" stroke-width="5" stroke-linecap="round" stroke-linejoin="round"/><path d="M302.417 119.924c-15.326-1.449-23.754 9.111-22.381 18.832 1.044 7.407 6.619 9.358 10.451 8.814 12.612-1.802 10.261-18.255-14.652-37.506-8.56-6.585-14.176-10.79-16.815-16.074-5.32-10.66.387-19.31 5.854-19.457" stroke="#A195F9" stroke-width="5" stroke-linejoin="round"/><path d="M208.051 201.053c41.818-59.26 92.319-11.745 123.062-21.4 25.406-8.016 22.455-57.54-28.696-59.696" stroke="#67BAF8" stroke-width="5" stroke-linecap="round" stroke-linejoin="round"/><path d="M240.117 147.686H130.696a4.17 4.17 0 0 0-4.029 5.259l6.307 35.877 3.198 18.157 1.135 6.452a4.176 4.176 0 0 0 4.029 3.095h85.453c2.705 0 8.288-2.535 7.647-5.169l.312-1.975 3.084-19.152 6.339-39.359a4.183 4.183 0 0 0-4.054-3.185z" fill="#fff"/><path d="M222.588 216.493h-81.252a4.174 4.174 0 0 1-4.029-3.094l-10.64-60.487a4.17 4.17 0 0 1 4.029-5.259h109.421c.473.004.941.093 1.382.263a4.116 4.116 0 0 1 2.384 4.692l-9.447 58.749c-1.242 3.811-3.741 5.219-6.446 5.219m-92.944-63.82s25.719-.346 28.506-.511m59.636.107h13.509" stroke="#2B1B9E" stroke-width="1.5" stroke-linecap="round" stroke-linejoin="round"/><path d="M184.839 178.262a6.225 6.225 0 0 1 6.093 4.962 6.229 6.229 0 0 1-7.768 7.27 6.235 6.235 0 0 1-2.88-10.248" stroke="#2B1B9E" stroke-width="1.5" stroke-linecap="round" stroke-linejoin="round"/><path d="M14.063 63.998c-16.05 1.876-14.85 23.333 9.11 28.33" stroke="#FE585A" stroke-width="5" stroke-linecap="round" stroke-linejoin="round"/><path d="M107.008 13.717H16.367a2.303 2.303 0 0 0-2.303 2.304v86.331a2.303 2.303 0 0 0 2.303 2.304h90.641a2.303 2.303 0 0 0 2.303-2.304v-86.33a2.304 2.304 0 0 0-2.303-2.305z" fill="#F5F4FE"/><path d="M109.508 20.178c-.19 2.6-.247 47.383-.247 47.383v34.791a2.316 2.316 0 0 1-.677 1.627 2.305 2.305 0 0 1-1.625.677H16.317a2.302 2.302 0 0 1-2.302-2.304v-86.33a2.306 2.306 0 0 1 2.302-2.305h87.83" stroke="#2B1B9E" stroke-width="1.5" stroke-linecap="round" stroke-linejoin="round"/><path d="M50.43 91.635c6.908 0 12.507-5.604 12.507-12.518 0-6.914-5.6-12.519-12.506-12.519-6.907 0-12.506 5.605-12.506 12.519s5.599 12.518 12.506 12.518z" fill="#FFB41E"/><path d="M71.414 92.327c6.907 0 12.506-5.605 12.506-12.519S78.321 67.29 71.414 67.29s-12.506 5.604-12.506 12.518c0 6.914 5.6 12.519 12.506 12.519z" fill="#FFB41E"/><path d="M71.414 92.327c6.907 0 12.506-5.605 12.506-12.519S78.321 67.29 71.414 67.29s-12.506 5.604-12.506 12.518c0 6.914 5.6 12.519 12.506 12.519z" stroke="#2B1B9E" stroke-width="1.5" stroke-linecap="round" stroke-linejoin="round"/><path d="M64.113 38.186c5.821 6.527 6.85 16.601 5.443 23.655-.246 1.218 8.222 3.053 8.477 1.045.633-5.235.625-7.21-1.25-15.77-1.455-6.633-4.555-11.819-11.132-13.745-3.955-1.16-11.372-2.197-17.333 4.206-10.771 11.58-6.997 25.58-6.578 25.877l7.507-1.539s0-9.638 1.316-12.873c5.616-13.975 13.55-10.856 13.55-10.856z" fill="#FFB41E"/><path d="M65.65 33.371c-3.955-1.16-11.371-2.197-17.332 4.206a28.448 28.448 0 0 0-7.014 24.56 1.812 1.812 0 0 0 2.146 1.416l4.16-.873a1.808 1.808 0 0 0 1.431-1.917c-.452-5.218-.995-21.548 14.036-22.462 0 0 6.577 1.647 5.204-1.201-1.184-2.362-7.293 0-4.933 2.008 5.64 4.659 6.948 14.116 6.479 22.223-.173 2.946 7.893 3.695 8.025 1.135a58.33 58.33 0 0 0-1.102-15.325 21.707 21.707 0 0 0-3.823-8.872M48.779 73.1c-3.643 1.062-5.296 5.63-3.758 8.642 1.538 3.013 4.177 4.116 7.4 3.556m19.643 3.3a8.217 8.217 0 0 1-7.596-5.08 8.238 8.238 0 0 1 1.782-8.97 8.22 8.22 0 0 1 14.036 5.82" stroke="#2B1B9E" stroke-width="1.5" stroke-linecap="round" stroke-linejoin="round"/><path d="M56.95 89.8a12.497 12.497 0 0 1-17.219-4.208 12.528 12.528 0 0 1 4.28-17.218 12.497 12.497 0 0 1 12.537-.18m14.734-4.65l-.452 3.153m5.6-2.659s.107 2.758-.395 3.712M43.22 63.866s.6 3.481 1.25 3.835m3.585-4.963c.049.148-.041 3.226 1.126 3.794m3.709 6.075s3.1-.354 5.048 3.753" stroke="#2B1B9E" stroke-width="1.5" stroke-linecap="round" stroke-linejoin="round"/><path d="M32.975 21.01a5.791 5.791 0 0 0-3.577-.643c-3.289.412-4.99 3.054-5.196 7.868h2.269c.099-2.469.617-4.032 1.587-4.938a3.394 3.394 0 0 1 2.63-.724 2.564 2.564 0 0 1 2.024 1.325 2.726 2.726 0 0 1 .082 2.543c-.987 2.033-3.355 2.346-5.55 2.387h-3.569l-.386.008c-1.414.14-2.96.453-3.708 1.778a3.591 3.591 0 0 0 .353 3.926 3.478 3.478 0 0 0 2.623 1.177c.438 0 .872-.078 1.283-.23.822-.321 2.343-1.268 2.598-3.96h-2.327c-.09.634-.427 2.083-1.751 1.927a1.184 1.184 0 0 1-.905-.683 1.08 1.08 0 0 1 .074-1.07c.296-.445 1.028-.675 2.229-.716h3.568a11.502 11.502 0 0 0 4.547-.823 6.16 6.16 0 0 0 2.804-2.544 4.943 4.943 0 0 0 .493-3.72 4.585 4.585 0 0 0-2.195-2.856" fill="#2B1B9E"/><path d="M3.498 76.343c.962 6.404 7.269 13.4 19.676 15.984" stroke="#FE585A" stroke-width="5" stroke-linecap="round" stroke-linejoin="round"/></svg>