<svg width="373" height="139" fill="none" xmlns="http://www.w3.org/2000/svg"><path d="M120.387 102.628c37.266-13.317 78.287-43.457 78.287-43.457 34.926-23.974 52.748-42.395 90.558-42.395 37.809 0 68.453 20.283 68.453 45.303" stroke="#A195F9" stroke-width="6.391" stroke-linecap="round" stroke-linejoin="round"/><path d="M264.371 111.527H100.886a3.671 3.671 0 0 1-2.727-1.214 3.68 3.68 0 0 1-.932-2.836l10.13-102.332a3.681 3.681 0 0 1 3.682-3.324h143.202a3.689 3.689 0 0 1 3.667 3.324l10.13 102.332a3.688 3.688 0 0 1-2.173 3.735c-.47.208-.979.316-1.494.315z" fill="#EFF8FE"/><path d="M264.85 114.867H101.365a3.703 3.703 0 0 1-3.495-2.535 3.697 3.697 0 0 1-.172-1.516L107.844 8.484a3.68 3.68 0 0 1 3.667-3.323H254.72a3.675 3.675 0 0 1 3.659 3.323l10.138 102.332a3.688 3.688 0 0 1-2.172 3.735 3.7 3.7 0 0 1-1.495.316z" fill="#EFF8FE"/><path d="M264.85 114.867H101.365a3.71 3.71 0 0 1-3.495-2.535 3.698 3.698 0 0 1-.172-1.516" stroke="#2B1B9E" stroke-width="1.198" stroke-linecap="round" stroke-linejoin="round"/><path d="M110.977 97.212l8.212-82.034H246.07l8.22 82.034H110.977z" fill="#fff"/><path d="M236.571 88.792h-96.429a2.814 2.814 0 0 1-2.804-2.98l3.515-58.819a2.255 2.255 0 0 1 2.245-2.117h90.517a2.252 2.252 0 0 1 2.245 2.117l3.515 58.82a2.801 2.801 0 0 1-.759 2.094 2.8 2.8 0 0 1-2.045.885z" fill="#E9E8F5"/><path d="M147.81 110.569h-46.924m-3.658-3.092L107.357 5.144a3.686 3.686 0 0 1 3.683-3.323h143.202a3.688 3.688 0 0 1 3.666 3.323l10.13 102.333a3.69 3.69 0 0 1-.934 2.839 3.68 3.68 0 0 1-2.733 1.211l-42.339-.159" stroke="#2B1B9E" stroke-width="1.198" stroke-linecap="round" stroke-linejoin="round"/><path d="M250.096 55.36l3.994 39.943a1.773 1.773 0 0 1-.452 1.372 1.778 1.778 0 0 1-1.321.585H139m-21.569-64.659l1.597-15.825a1.782 1.782 0 0 1 1.774-1.598h123.646a1.79 1.79 0 0 1 1.773 1.598l1.686 16.896" stroke="#2B1B9E" stroke-width="1.198" stroke-linecap="round" stroke-linejoin="round"/><path d="M126.969 75.156h-5.728a1.825 1.825 0 0 1-1.734-1.248 1.817 1.817 0 0 1-.087-.75l3.778-41.54a1.826 1.826 0 0 1 1.822-1.67h5.456a1.841 1.841 0 0 1 1.357.6 1.834 1.834 0 0 1 .472 1.406l-3.507 41.54a1.835 1.835 0 0 1-1.829 1.662z" fill="#F5F4FE"/><path d="M126.969 75.156h-5.728a1.825 1.825 0 0 1-1.734-1.248 1.817 1.817 0 0 1-.087-.75l3.778-41.54a1.826 1.826 0 0 1 1.822-1.67h5.456a1.841 1.841 0 0 1 1.357.6 1.834 1.834 0 0 1 .472 1.406l-3.507 41.54a1.835 1.835 0 0 1-1.829 1.662z" stroke="#2B1B9E" stroke-width="1.198" stroke-linecap="round" stroke-linejoin="round"/><path d="M126.314 67.166l-1.74-.061a.95.95 0 0 0-.983.917l-.062 1.74a.951.951 0 0 0 .917.984l1.74.06a.951.951 0 0 0 .984-.916l.061-1.74a.95.95 0 0 0-.917-.984z" fill="#fff"/><path d="M125.277 65.086l-1.74-.061a.951.951 0 0 0-.984.916l-.061 1.74a.951.951 0 0 0 .917.984l1.74.061a.951.951 0 0 0 .984-.916l.061-1.74a.951.951 0 0 0-.917-.984z" fill="#2B1B9E"/><path d="M125.595 35.493l.511 4.601 1.318-2.045 2.213-.463-4.042-2.093z" fill="#2B1B9E" stroke="#2B1B9E" stroke-width="1.198" stroke-linecap="round" stroke-linejoin="round"/><path d="M128.583 44.735l-3.761-.268-.268 3.76 3.761.27.268-3.762zm-.208 12.279l-3.994-.288.335-4.737" stroke="#2B1B9E" stroke-width="1.198" stroke-linecap="round" stroke-linejoin="round"/><path d="M123.605 53.188l4.266.311-.311 4.45" stroke="#2B1B9E" stroke-width="1.198" stroke-linecap="round" stroke-linejoin="round"/><path d="M357.686 63.525c0 25.02-30.652 45.302-68.454 45.302-63.644 0-120.075-60.473-142.842-74.908-18.981-12.03-43.138-17.143-57.877-17.143-19.468 0-37.05 5.384-49.529 14.02" stroke="#FE585A" stroke-width="6.391" stroke-linecap="round" stroke-linejoin="round"/><path d="M39 30.756c-11.735 8.132-18.94 19.172-18.94 31.283 0 42.882 65.274 52.197 95.862 52.197" stroke="#FFB81E" stroke-width="6.391" stroke-linecap="round" stroke-linejoin="round"/><path d="M238.648 62.238a4.902 4.902 0 0 1 1.007 2.11c.327 1.597.878 5.455-12.558 9.058a146.993 146.993 0 0 1-34.838 3.196c-12.215-.368-25.643-5.145-34.95-6.99-7.389-1.47-12.086.08-12.118-1.278.127 5.591-3.132 9.905 1.525 12.31 5.496 2.828 16.313 3.331 23.447 3.49 39.143.871 63.372-4.17 67.103-5.783 10.377-4.545 1.901-15.641 1.382-16.113zM142.65 48.035v-1.183c-.04.368-.024.76 0 1.183zm.935 5.592zm1.215 8.412zm-.536-4.402z" fill="#fff"/><path d="M144.703 42.051zm70.61 15.522c6.247.32 18.286.08 23.335 4.665-3.914-4.889-17.215-4.354-23.335-4.665zm-57.812-6.559zm0 0zm2.916-1.246z" fill="#A195F9"/><path d="M157.317 69.588c9.307 1.845 22.735 6.622 34.95 6.99a146.993 146.993 0 0 0 34.838-3.196c13.436-3.603 12.885-7.421 12.558-9.059a4.897 4.897 0 0 0-1.015-2.109c-5.049-4.585-17.087-4.346-23.334-4.665-14.963-.799-25.667-7.86-33.201-20.77a3.803 3.803 0 0 0-1.661-1.542 9.78 9.78 0 0 0-5.952.184 3.785 3.785 0 0 0-2.396 2.971 7.515 7.515 0 0 0 .751 3.084 21.67 21.67 0 0 0 .862 1.965 9.456 9.456 0 0 0-7.86 1.414c-1.079.8-4.721 4.41-5.424 4.865-.927.6-3.3 2.15-5.752 1.31-4.298-1.462-2.94-9.985-8.276-9.442-2.005.208-2.844 2.58-2.565 4.402.048.32 1.862 7.317 2.181 9.162 1.215 6.958-.839 11.823-.799 13.11.04 1.286 4.706-.144 12.095 1.326z" fill="#A195F9"/><path d="M233.583 71.25c-12.941 4.313-29.558 5.543-40.446 5.056a104.866 104.866 0 0 1-21.944-3.06c-7.19-1.71-14.02-5.663-20.714-4.21" stroke="#2B1B9E" stroke-width="1.198" stroke-linecap="round" stroke-linejoin="round"/><path d="M241.372 74.716c-5.208 7.318-29.557 8.708-41.372 9.235-14.563.639-50.543.6-54.634-4.49-1.214-1.51-1.262-3.618-.942-5.52a90.437 90.437 0 0 0 1.765-13.724 33.248 33.248 0 0 0-1.597-11.184c-2.589-7.19 2.196-7.725 3.522-7.357 4.722 1.302 2.709 8.452 6.767 9.746a4.489 4.489 0 0 0 3.411-.615c3.139-1.702 5.392-4.745 8.532-6.44a11.613 11.613 0 0 1 14.083 2.765c2.189 2.668-.088 4.793-2.173 2.884-2.396-2.117-3.738-4.793-5.312-7.557-.743-1.287-1.43-2.724-1.206-4.194.303-2.013 2.396-3.196 4.385-3.523 5.656-.927 7.19 4.721 10.162 8.484 2.7 3.379 5.184 5.224 8.787 7.557a44.326 44.326 0 0 0 18.494 6.734c7.828.99 17.758.327 22.671 2.804" stroke="#2B1B9E" stroke-width="1.198" stroke-linecap="round" stroke-linejoin="round"/><path d="M188.601 55.368a7.856 7.856 0 0 1 5.392-5.04m.75 7.405c1.023-3.196 2.397-4.05 4.154-4.737m-34.023 13.372a4.542 4.542 0 0 1 2.575-3.932 4.547 4.547 0 0 1 4.679.45 3.34 3.34 0 0 1 1.446 2.827 2.169 2.169 0 0 1-2.213 1.997 2.316 2.316 0 0 1-1.774-2.644 4.85 4.85 0 0 1 1.87-2.916 32.803 32.803 0 0 0 2.748-2.236 4.256 4.256 0 0 0 1.27-3.707c-.288-1.326-1.766-2.397-3.036-1.925m41.093-9.626c.759 3.195 1.718 8.22 2.732 12.326l1.83 7.43c.359 1.47.727 2.947 1.166 4.401" stroke="#2B1B9E" stroke-width="1.198" stroke-linecap="round" stroke-linejoin="round"/><path d="M215.243 56.995l.437 1.858 1.858-.436-.436-1.859-1.859.437z" fill="#2B1B9E" stroke="#2B1B9E" stroke-width=".855" stroke-linecap="round" stroke-linejoin="round"/><path d="M212.363 45.65l2.31-.542-.542-2.31-2.31.542.542 2.31zm6.198 25.572l2.31-.543-.542-2.31-2.31.543.542 2.31z" fill="#fff" stroke="#2B1B9E" stroke-width="1.198" stroke-linecap="round" stroke-linejoin="round"/><path d="M275.954 105.72c-1.342-6.024-2.979-7.557-3.099-13.988-.096-5.424 1.23-28.056-.392-31.155-.71-1.334-5.959-4.857-10.816-9.235-6.279-5.664-11.983-12.462-13.58-12.662-2.677-.335-16.401 2.86-17.695 4.681-.855 1.215-2.396 3.468-4.122 4.61-.144.096-2.397.056-2.596 5.44l-.639 10.018s4.106 15.713 8.132 22.52c2.341 3.993 4.793 8.275 6.734 10.137 13.149 12.645 15.178 18.062 15.77 26.865a33.361 33.361 0 0 0 8.555-3.076c4.186-2.268 8.133-5.951 10.641-7.014a51.008 51.008 0 0 1 5.816-1.334 17.194 17.194 0 0 1-2.709-5.807zm-34.142-31.515s-10.29-10.385-10.29-16.097c0 0 5.089 4.178 7.15 5.16 1.67.8 3.659 6.288 3.659 6.288l-.519 4.65z" fill="#fff"/><path d="M252.388 127.545l3.691 9.738h41.732s-8.836-8.836-10.002-10.993c-1.166-2.157-4.793-12.781-10.185-14.419-2.477-.743-10.178 5.288-16.856 8.915-1.438.799-5.073 1.095-7.03 2.437a3.99 3.99 0 0 0-1.35 4.322z" fill="#fff"/><path d="M217.71 57.23l3.739-1.27" stroke="#2B1B9E" stroke-width="1.198" stroke-linecap="round" stroke-linejoin="round"/><path d="M234.366 55.92c5.464-1.319 33.312-9.315 42.819-12.04 1.35-.39 5.991-1.597 5.216-5.128-.607-2.756-2.604-2.948-5.895-2.229-4.226.92-40.598 11.744-52.996 15.49l-4.49 3.108a1.437 1.437 0 0 0-.519 1.597l.104.328a1.321 1.321 0 0 0 1.134.927l6.151.51 8.476-2.563z" fill="#FFB81E"/><path d="M278.902 41.213a1.909 1.909 0 0 1-.527-3.747l3.195-.91a1.91 1.91 0 0 1 2.119 2.744 1.91 1.91 0 0 1-1.072.922l-3.196.919a1.977 1.977 0 0 1-.519.072z" fill="#FFB81E"/><path d="M227.073 76.386s-2.5-7.749-3.579-11.527c-1.374-4.793-.359-10.809.336-13.876.343-1.502 1.19-3.316 2.724-3.132 1.534.184 3.658 1.837 4.353 4.89.272 1.23.152 4.529 1.015 7.452a20.265 20.265 0 0 0 3.1 6.112c2.156 2.468-7.949 10.081-7.949 10.081z" fill="#fff"/><path d="M278.223 37.354a7.604 7.604 0 0 0 1.19 4.418m-34.694 33.104c-2.692.072-6.151-2.66-7.717-4.849a33.737 33.737 0 0 1-5.2-9.898c-.911-2.636-.376-7.78-1.989-10.05-1.199-1.685-3.34-2.907-4.929-1.597-1.151.943-1.47 4.394-1.598 5.88-.439 5.368-.847 5.208-.439 8.148.383 2.74 4.793 20.618 12.717 30.356 7.15 8.788 17.831 17.823 18.166 29.118.064 2.165-4.593 9.643-6.215 6.04-1.621-3.603 6.127-3.787 14.379-7.933 8.253-4.146 11.017-9.163 16.401-7.837 5.137 1.263 8.835 17.032 17.303 22.528" stroke="#2B1B9E" stroke-width="1.198" stroke-linecap="round" stroke-linejoin="round"/><path d="M246.701 73.925c3.523-2.644 5.009-5.408 5.009-6.918 0-.926.232-5.951-.711-6.998-1.782-1.973-5.744-4.593-6.599-5.879m-16.936-6.279c.2-.28.919-1.597 1.51-2.396a6.84 6.84 0 0 1 3.299-2.94c2.397-.87 12.158-3.547 14.379-3.61 2.549-.08 4.13 2.108 5.84 3.73m7.134 7.181c4.178 3.116 6.111 4.793 10.193 8.053 3.459 2.74 3.907 8.244 3.699 12.038-.12 2.157-2.397 21.114-.719 25.164 1.462 3.571 3.731 12.782 4.793 14.787m-21.058-58.692c1.957 2.141 5.185 6.99 7.302 8.972m-29.214-8.484l4.45-1.303" stroke="#2B1B9E" stroke-width="1.198" stroke-linecap="round" stroke-linejoin="round"/><path d="M234.247 58.524s7.014 2.125 9.123 3.339c2.109 1.214 4.529 5.784 4.529 5.784" stroke="#2B1B9E" stroke-width="1.198" stroke-linecap="round" stroke-linejoin="round"/><path d="M357.686 63.525c0 25.02-30.652 45.302-68.454 45.302-19.037 0-37.418-5.408-54.458-13.372" stroke="#67BAF8" stroke-width="6.391" stroke-linecap="round" stroke-linejoin="round"/><path d="M243.65 99.321a194.385 194.385 0 0 1-25.052-12.35" stroke="#FE585A" stroke-width="6.391" stroke-linecap="round" stroke-linejoin="round"/><path d="M220.187 89.471c-.798-.431-1.541-.87-2.3-1.318" stroke="#FE585A" stroke-width="2.397" stroke-linecap="round" stroke-linejoin="round"/><path d="M130.045 78.927c-3.347-.2-7.19 5.591-7.821 10.145-.104.719-.886 1.414-1.182 2.077-.735 1.694-5.113 6.04-5.999 7.653l1.965-7.038c.623-2.213 1.773-5.113 2.396-7.325a58.837 58.837 0 0 1 2.908-8.612 50.607 50.607 0 0 1 4.705-7.925c.576-.798 1.183-2.572.448-3.642-.887-1.287-2.988-.855-4.202.127-1.214.983-6.255 7.19-7.054 8.317-3.507 5-6.615 12.07-9.586 17.414l.671-1.27c.559-4.793 1.989-11.351 2.628-14.163a5.733 5.733 0 0 1 1.19-2.397c2.005-2.397 6.838-8.228 8.236-10.01 1.902-2.396 1.902-6.055-.99-4.793a31.44 31.44 0 0 0-7.869 5.177l.176-.567c.623-2.213-1.342-2.812-2.572-2.453-1.231.36-5.257 3.395-8.213 6.918-.103.128-1.038 1.015-1.214 1.239.162-.37.301-.748.416-1.135.463-3.379-2.261-2.516-3.02-1.933-2.956 2.373-7.39 6.367-9.634 9.402-3.395 4.602-5.4 7.765-5.824 13.533-.207 2.804-.998 13.812-2.828 21.96-.934 4.162-1.597 10.849-3.57 14.995a6.39 6.39 0 0 1-3.404 3.035l-2.1 4.953-3.995 5.049h35.653c4.393-2.636 7.389-11.687 7.389-11.687s11.064-4.298 16.936-20.195c1.31-3.555 3.195-12.838 6.175-22.2.287-1.03.663-4.562-.815-4.65z" fill="#fff"/><path d="M98.626 67.838c1.31-5.248-2.277-2.907-3.035-2.324a59.202 59.202 0 0 0-9.163 8.62c-3.683 4.37-5.4 7.764-5.824 13.532-.28 3.73-2.117 19.172-3.539 26.402-.894 4.529-1.885 13.652-7.573 14.427-2.269.304-3.459-4.058-1.454-4.793 2.94-1.134 3.563 7.094-3.195 12.582" stroke="#2B1B9E" stroke-width="1.198" stroke-linecap="round" stroke-linejoin="round"/><path d="M86.78 85.925c.231-2.221 2.556-5.24 4.832-8.468 2.66-3.77 5.944-8.14 6.775-9.139 2.955-3.53 8.683-7.837 9.977-8.212 1.294-.376 3.132.176 2.509 2.396" stroke="#2B1B9E" stroke-width="1.198" stroke-linecap="round" stroke-linejoin="round"/><path d="M107.31 84.63a89.619 89.619 0 0 1 3.059-10.944c.08-.225.196-.436.344-.623 1.19-1.478 6.782-8.444 8.364-10.473 1.901-2.396 2.212-6.39-.679-5.08a32.48 32.48 0 0 0-8.684 6.159 39.936 39.936 0 0 0-5.935 6.63c-3.459 5.169-6.064 11.671-8.173 17.527m11.056 2.317c2.964-5.345 5.408-11.56 8.915-16.56 2.494-3.13 5.147-6.13 7.949-8.988 1.214-.982 3.083-1.597 3.994-.311.735 1.07.08 2.772-.447 3.642a86.426 86.426 0 0 0-4.969 8.636c-1.262 2.756-4.865 13.11-5.488 15.322-.503 1.805-1.43 6.503-3.044 9.538" stroke="#2B1B9E" stroke-width="1.198" stroke-linecap="round" stroke-linejoin="round"/><path d="M113.907 100.767c.895-1.597 7.19-9.13 7.334-9.538 1.126-4.45 5.216-12.262 8.563-12.063 1.478.088.991 2.9.664 3.939-2.972 9.362-4.242 17.726-5.433 21.321-1.733 5.24-3.195 7.613-7.868 13.828-3.499 4.657-8.428 6.447-9.858 8.037-.695.798-5.129 9.498-6.439 11.287" stroke="#2B1B9E" stroke-width="1.198" stroke-linecap="round" stroke-linejoin="round"/></svg>