<svg fill="none" height="55" viewBox="0 0 79 55" width="79" xmlns="http://www.w3.org/2000/svg"><g stroke-linecap="round" stroke-linejoin="round" stroke-width="4"><path d="m2 53h71c2.2091 0 4-1.7909 4-4v-43c0-2.20914-1.7909-4-4-4h-67c-2.20914 0-4 1.79086-4 4v18.5" stroke="#9d91f5"/><path d="m40.5 2h-34.5c-2.20914 0-4 1.79086-4 4v18.5" stroke="#fa585a"/><path d="m77 42v7c0 2.2091-1.7909 4-4 4h-71" stroke="#2b1b9a"/><path d="m60.5 43.5-17.2259-23.4464c-.3901-.5309-1.178-.5461-1.5883-.0306l-17.927 22.5237c-.3927.4934-1.1385.5046-1.5458.0232l-9.4125-11.1239c-.4117-.4866-1.1675-.469-1.5561.0362l-9.2444 12.0178" stroke="#67b6f4"/></g><circle cx="63" cy="17" fill="#ffce1e" r="5"/></svg>