<svg fill="none" height="169" viewBox="0 0 362 169" width="362" xmlns="http://www.w3.org/2000/svg"><g stroke-linecap="round" stroke-miterlimit="10" stroke-width="7"><path d="m296.365 100.713c12.564-5.8772 10.323-8.0446 12.159-19.947 1.837-11.9023 11.425-14.1799 11.425-14.1799" stroke="#e2defc"/><path d="m334.674 39.4836c12.563-5.8777 10.322-8.0451 12.159-19.9474 1.837-11.90239 11.425-14.18 11.425-14.18" stroke="#e2defc"/><path d="m251.041 161.059c12.563-5.877 10.322-8.045 12.159-19.947s11.425-14.18 11.425-14.18" stroke="#9d91f5"/><path d="m267.09 66.7178c-12.414 6.189-10.119 8.2998-11.659 20.2443-1.539 11.9444-11.068 14.4599-11.068 14.4599" stroke="#ffce1e"/><path d="m310.48 3.99998c-12.413 6.18902-10.119 8.29992-11.658 20.24432-1.54 11.9444-11.068 14.4603-11.068 14.4603" stroke="#67b6f4"/><path d="m226.527 129.757c-12.413 6.189-10.119 8.3-11.658 20.245-1.54 11.944-11.068 14.46-11.068 14.46" stroke="#fa585a"/><g stroke="#e2defc"><path d="m239.088 38.3901c12.563-5.8777 10.322-8.0451 12.159-19.9474 1.837-11.9024 11.425-14.18 11.425-14.18"/><path d="m196.244 101.288c12.563-5.8778 10.323-8.0452 12.159-19.9475 1.837-11.9024 11.425-14.18 11.425-14.18"/><path d="m157.002 160.96c12.563-5.878 10.322-8.045 12.159-19.947 1.837-11.903 11.425-14.18 11.425-14.18"/></g><path d="m143.365 100.713c12.564-5.8772 10.323-8.0446 12.159-19.947 1.837-11.9023 11.425-14.1799 11.425-14.1799" stroke="#9d91f5"/><path d="m181.674 39.4836c12.563-5.8777 10.322-8.0451 12.159-19.9474 1.837-11.90239 11.425-14.18 11.425-14.18" stroke="#e2defc"/><path d="m98.0407 161.059c12.5633-5.877 10.3223-8.045 12.1593-19.947s11.425-14.18 11.425-14.18" stroke="#e2defc"/><path d="m114.09 66.7178c-12.414 6.189-10.119 8.2998-11.659 20.2443-1.539 11.9444-11.0677 14.4599-11.0677 14.4599" stroke="#ffce1e"/><path d="m157.48 3.99998c-12.413 6.18902-10.119 8.29992-11.658 20.24432-1.54 11.9444-11.068 14.4603-11.068 14.4603" stroke="#fa585a"/><path d="m73.5272 129.757c-12.4132 6.189-10.119 8.3-11.6586 20.245-1.5396 11.944-11.0678 14.46-11.0678 14.46" stroke="#67b6f4"/><path d="m86.0876 38.3901c12.5636-5.8777 10.3227-8.0451 12.1595-19.9474 1.8369-11.9024 11.4249-14.18 11.4249-14.18" stroke="#9d91f5"/><path d="m43.2438 101.288c12.5636-5.8778 10.3228-8.0452 12.1595-19.9475 1.8368-11.9024 11.4248-14.18 11.4248-14.18" stroke="#e2defc"/><path d="m3.9997 160.96c12.5636-5.878 10.3227-8.045 12.1595-19.947 1.8368-11.903 11.4248-14.18 11.4248-14.18" stroke="#e2defc"/></g></svg>